<?xml version="1.0" standalone="no"?>
<!DOCTYPE svg PUBLIC "-//W3C//DTD SVG 20010904//EN"
 "http://www.w3.org/TR/2001/REC-SVG-20010904/DTD/svg10.dtd">
<svg version="1.0" xmlns="http://www.w3.org/2000/svg"
 width="455.000000pt" height="502.000000pt" viewBox="0 0 455.000000 502.000000"
 preserveAspectRatio="xMidYMid meet">

<g transform="translate(0.000000,502.000000) scale(0.100000,-0.100000)"
fill="#000000" stroke="none">
<path d="M1540 408 c-19 -11 -39 -25 -45 -31 -5 -7 -23 -19 -40 -27 -28 -14
-190 -169 -228 -218 -54 -70 -86 -120 -80 -125 3 -4 71 -7 150 -7 l143 0 31
68 c44 95 46 100 68 167 21 65 46 184 40 189 -2 2 -20 -5 -39 -16z"/>
<path d="M3100 358 c0 -40 30 -170 62 -265 l31 -93 138 0 c76 0 140 4 143 8 3
5 -4 18 -14 30 -11 12 -20 24 -20 28 0 30 -266 294 -297 294 -7 0 -13 5 -13
10 0 6 -7 10 -15 10 -9 0 -15 -9 -15 -22z"/>
</g>
</svg>
