<?xml version="1.0" standalone="no"?>
<!DOCTYPE svg PUBLIC "-//W3C//DTD SVG 20010904//EN"
 "http://www.w3.org/TR/2001/REC-SVG-20010904/DTD/svg10.dtd">
<svg version="1.0" xmlns="http://www.w3.org/2000/svg"
 width="563.000000pt" height="547.000000pt" viewBox="0 0 563.000000 547.000000"
 preserveAspectRatio="xMidYMid meet">

<g transform="translate(0.000000,547.000000) scale(0.100000,-0.100000)"
fill="#000000" stroke="none">
<path d="M0 2735 l0 -2735 2815 0 2815 0 0 2735 0 2735 -2815 0 -2815 0 0
-2735z m3140 2670 c323 -38 605 -121 889 -264 258 -129 453 -272 672 -491 232
-232 369 -422 505 -705 117 -242 181 -453 226 -740 28 -179 30 -507 5 -688
-79 -560 -314 -1048 -697 -1441 -404 -416 -890 -672 -1466 -772 -146 -26 -180
-28 -419 -29 -272 0 -341 6 -557 51 -672 140 -1260 538 -1645 1114 -514 770
-564 1785 -126 2600 257 479 662 870 1147 1109 279 137 551 218 866 256 146
18 449 18 600 0z"/>
<path d="M2690 5330 c-1087 -69 -2008 -834 -2265 -1883 -225 -916 76 -1867
784 -2479 383 -331 853 -537 1354 -593 902 -101 1774 287 2308 1025 362 500
520 1116 448 1745 -70 601 -377 1180 -837 1576 -501 430 -1146 649 -1792 609z
m115 -235 c36 -35 34 -86 -4 -118 -30 -25 -30 -25 -10 -43 31 -28 62 -83 55
-99 -11 -31 -45 -15 -88 43 -34 44 -51 58 -74 60 l-30 3 4 -58 c4 -63 -10 -89
-41 -77 -17 6 -25 67 -30 214 l-2 85 35 6 c19 4 63 7 98 8 54 1 66 -2 87 -24z
m328 8 c10 -3 17 -12 15 -21 -3 -14 -16 -17 -86 -15 l-82 2 0 -38 0 -39 69 -4
c76 -4 87 -9 77 -34 -6 -14 -17 -16 -81 -11 l-75 5 0 -42 0 -43 76 -6 c83 -6
105 -17 85 -41 -20 -24 -214 -9 -223 16 -9 23 13 262 24 276 9 10 31 12 97 7
47 -4 94 -9 104 -12z m-650 -43 c31 -25 43 -72 27 -110 -11 -28 -62 -60 -93
-60 -41 0 -47 -10 -40 -71 5 -50 3 -60 -11 -65 -29 -11 -43 16 -66 135 -12 63
-24 119 -26 125 -8 22 14 39 67 51 78 19 113 18 142 -5z m914 0 c65 -29 99
-120 45 -120 -11 0 -24 13 -33 33 -18 41 -62 63 -95 48 -37 -16 -64 -69 -64
-123 0 -38 5 -50 26 -67 38 -30 71 -26 105 10 31 33 59 34 59 2 0 -53 -64 -89
-136 -78 -85 12 -134 91 -113 182 13 61 36 93 84 114 51 23 70 23 122 -1z
m216 -65 c6 -13 -31 -141 -69 -243 -13 -35 -20 -43 -37 -40 -12 2 -23 11 -25
20 -4 19 66 245 81 266 13 17 44 15 50 -3z m-1414 -14 c11 -11 23 -36 27 -55
9 -49 -15 -83 -78 -109 -42 -17 -49 -23 -43 -41 17 -59 18 -96 1 -102 -10 -4
-23 -1 -30 7 -22 23 -100 259 -90 269 17 17 118 49 157 49 24 1 44 -6 56 -18z
m1636 -67 c15 -15 16 -35 10 -163 -4 -80 -11 -150 -15 -154 -4 -5 -16 -7 -26
-5 -14 2 -20 15 -24 46 -5 40 -8 44 -56 66 l-50 23 -32 -28 c-35 -32 -62 -29
-62 5 0 26 198 226 223 226 8 0 23 -7 32 -16z m-1979 -76 c27 -24 51 -45 54
-48 3 -3 31 -27 63 -54 42 -35 57 -55 55 -70 -4 -30 -31 -31 -64 -3 l-28 25
-53 -26 c-50 -25 -52 -27 -55 -71 -3 -42 -5 -46 -30 -46 l-26 1 21 -26 c12
-14 44 -45 70 -69 27 -25 70 -73 98 -107 l49 -62 103 48 c202 94 379 141 606
161 281 25 593 -35 853 -162 46 -22 84 -35 86 -30 8 24 109 147 175 213 63 63
177 228 177 256 0 5 -16 16 -36 25 -37 18 -44 49 -13 55 23 4 209 -107 209
-124 0 -25 -28 -27 -65 -5 l-35 20 -24 -37 c-13 -21 -35 -60 -49 -87 -25 -48
-25 -52 -12 -104 24 -90 44 -259 46 -386 l1 -120 49 -53 c205 -224 353 -529
410 -842 9 -48 14 -150 14 -280 0 -172 -4 -223 -22 -315 -136 -668 -633 -1170
-1306 -1317 -89 -20 -131 -23 -332 -23 -201 0 -243 3 -332 23 -594 130 -1053
531 -1246 1088 -198 570 -64 1235 336 1661 44 47 49 57 53 110 9 118 35 299
59 412 14 64 25 121 25 126 0 6 8 1 16 -10 15 -19 16 -16 10 45 -19 219 -19
215 -1 233 24 25 37 21 91 -25z m-329 -155 c4 -11 -4 -26 -26 -45 -36 -32 -38
-26 39 -128 74 -98 74 -98 60 -115 -22 -27 -38 -16 -106 73 -37 48 -71 91 -75
96 -4 5 -22 -3 -40 -18 -35 -30 -52 -30 -57 1 -2 15 18 36 85 86 93 70 110 77
120 50z m2784 -51 c74 -57 93 -77 84 -92 -11 -18 -30 -11 -89 35 l-58 45 -19
-24 c-11 -13 -19 -29 -19 -34 0 -5 25 -28 55 -51 36 -27 52 -46 49 -56 -10
-24 -31 -18 -86 26 l-52 41 -23 -27 c-13 -14 -23 -30 -23 -35 0 -5 27 -30 60
-55 60 -46 73 -70 45 -81 -16 -7 -160 97 -175 126 -7 13 10 42 73 124 45 58
89 106 98 106 9 0 45 -22 80 -48z m-3018 -140 c25 -28 32 -76 13 -91 -17 -14
-21 -8 -17 32 2 12 -5 17 -24 17 -27 0 -41 20 -31 45 8 21 39 19 59 -3z m3264
-151 c-9 -34 -17 -65 -17 -69 0 -5 30 -3 68 4 56 11 69 11 81 -1 25 -25 5 -42
-62 -54 -35 -6 -73 -11 -84 -11 -11 0 -41 -18 -66 -40 -53 -47 -87 -53 -87
-16 0 16 14 36 40 59 34 29 44 47 64 117 26 88 42 109 65 85 13 -12 12 -22 -2
-74z m-3296 -22 c105 -90 120 -112 95 -137 -14 -14 -26 -14 -127 1 -62 10
-114 15 -116 13 -5 -4 51 -58 102 -98 29 -23 31 -61 3 -66 -18 -3 -207 158
-222 190 -7 13 -5 23 5 34 14 13 27 13 117 -1 154 -23 153 -24 73 46 -39 34
-71 67 -71 73 0 16 22 37 34 33 6 -2 54 -41 107 -88z m3550 -207 c60 -63 64
-131 13 -192 -56 -66 -141 -87 -202 -50 -68 42 -96 124 -63 188 34 67 99 104
171 98 36 -3 51 -11 81 -44z m-3783 -32 c101 -54 128 -126 80 -212 -47 -83
-146 -103 -223 -44 -77 59 -91 131 -41 206 45 68 115 87 184 50z m3950 -226
c3 -18 -12 -29 -94 -70 -54 -27 -102 -56 -108 -65 -13 -23 1 -66 29 -85 23
-15 29 -13 131 32 100 45 107 47 120 30 7 -10 10 -24 8 -31 -7 -16 -175 -95
-218 -102 -82 -13 -160 133 -110 205 21 30 182 112 214 109 17 -1 26 -9 28
-23z m-4078 -98 c56 -37 76 -85 60 -141 -16 -54 -58 -135 -70 -135 -15 0 -234
101 -249 116 -12 11 -10 23 14 79 16 37 42 77 59 92 26 22 37 25 87 21 41 -3
69 -12 99 -32z m4235 -289 c15 -45 24 -92 20 -104 -14 -59 -94 -84 -136 -42
-20 20 -22 20 -31 5 -21 -37 -71 -86 -88 -86 -31 0 -32 30 -3 67 61 75 73 96
67 117 -9 30 -8 30 -64 11 -57 -19 -80 -15 -80 15 0 23 8 27 160 75 57 18 110
30 117 28 7 -3 24 -42 38 -86z m-4423 -108 c118 -33 145 -47 135 -73 -9 -22
-30 -20 -164 16 -124 33 -150 46 -140 72 9 23 42 20 169 -15z m3899 -1512 c85
-47 114 -68 114 -82 0 -33 -31 -28 -122 20 l-88 47 78 -72 c55 -52 77 -79 77
-96 0 -37 -24 -40 -123 -15 -49 12 -91 20 -93 18 -2 -2 28 -21 68 -43 83 -46
99 -59 92 -79 -10 -26 -39 -17 -158 51 -121 68 -130 79 -100 122 18 27 38 27
129 2 39 -11 74 -20 80 -20 5 0 -23 33 -64 74 l-73 73 16 32 c9 17 24 31 35
31 9 0 69 -28 132 -63z m-3253 -179 c7 -7 12 -16 12 -20 0 -5 -45 -41 -99 -82
l-100 -73 41 -57 c39 -55 44 -86 14 -86 -21 0 -128 149 -118 165 9 18 213 165
227 165 6 0 16 -5 23 -12z m3002 -83 c21 -25 4 -45 -36 -45 -43 0 -74 -23 -74
-55 0 -37 24 -36 91 6 75 46 97 48 138 13 24 -20 31 -34 31 -62 0 -46 -30 -96
-72 -122 -41 -25 -69 -25 -99 -1 -34 27 -12 51 40 44 32 -4 41 -1 59 22 25 31
28 55 10 73 -18 18 -32 15 -87 -23 -68 -47 -99 -53 -134 -25 -47 37 -30 122
35 172 28 22 81 23 98 3z m-2809 -155 c11 -6 19 -21 19 -35 0 -33 -110 -276
-128 -282 -7 -3 -20 1 -28 9 -13 13 -13 19 2 52 l18 36 -44 45 -43 44 -36 -15
c-43 -18 -63 -12 -59 18 2 19 27 33 138 80 74 31 136 57 138 58 2 0 12 -5 23
-10z m2654 -134 c110 -53 135 -68 135 -86 0 -29 -19 -33 -63 -15 l-37 15 -42
-39 c-42 -38 -42 -39 -30 -77 9 -32 9 -41 -2 -53 -25 -25 -40 -6 -83 105 -69
179 -68 172 -48 194 10 11 22 20 27 20 5 0 69 -29 143 -64z m-2438 -56 c59
-35 89 -115 60 -154 -22 -30 -47 -14 -47 29 0 48 -13 70 -49 85 -26 10 -35 10
-63 -7 -39 -23 -78 -77 -78 -108 0 -59 64 -91 125 -63 31 14 50 0 41 -29 -14
-44 -87 -55 -145 -22 -54 31 -76 66 -75 121 2 120 136 206 231 148z m2191 -56
c47 -32 18 -64 -41 -45 -44 15 -81 -1 -98 -41 -10 -24 -9 -35 6 -69 21 -46 67
-89 95 -89 10 0 32 11 47 24 23 20 28 33 28 68 0 34 4 43 19 46 27 6 39 -12
39 -56 0 -100 -123 -166 -210 -112 -80 48 -112 161 -65 227 40 57 132 81 180
47z m-2008 -69 c10 -12 7 -24 -15 -66 -14 -28 -25 -53 -22 -55 2 -2 42 9 90
25 71 24 88 27 103 17 28 -21 9 -44 -52 -62 l-57 -16 7 -74 c4 -41 9 -80 12
-87 2 -7 -2 -21 -10 -32 -12 -16 -18 -18 -33 -9 -13 8 -20 32 -28 95 -10 82
-11 84 -35 81 -32 -5 -45 -16 -60 -52 -15 -35 -39 -46 -59 -25 -14 13 -12 22
18 83 59 121 102 192 115 192 8 0 19 -7 26 -15z m1732 -66 c11 -6 26 -26 34
-46 14 -32 13 -37 -5 -68 l-19 -33 27 -12 c15 -6 42 -24 60 -41 27 -24 31 -32
21 -44 -19 -22 -34 -19 -101 25 -70 45 -69 45 -93 27 -16 -12 -16 -15 3 -61
12 -26 21 -54 21 -61 0 -16 -39 -31 -50 -18 -19 19 -111 238 -108 257 2 14 24
29 78 53 82 35 101 39 132 22z m-1252 -129 c73 -37 94 -125 51 -214 -27 -55
-62 -76 -128 -76 -90 0 -148 57 -147 144 1 60 21 103 64 140 39 33 103 35 160
6z m980 -96 c47 -63 86 -121 88 -128 2 -7 -5 -19 -14 -27 -15 -12 -20 -9 -48
22 l-31 35 -57 -15 c-56 -14 -56 -15 -63 -58 -5 -37 -10 -43 -30 -43 -12 0
-25 6 -27 13 -6 15 27 290 36 306 4 6 19 11 34 11 23 0 40 -18 112 -116z
m-294 45 c13 -12 24 -31 24 -41 0 -31 -29 -33 -59 -4 -42 40 -101 31 -101 -16
0 -11 10 -20 28 -23 129 -28 146 -37 157 -85 9 -41 -19 -88 -63 -107 -74 -31
-172 6 -172 64 0 38 29 40 57 4 29 -37 72 -42 103 -11 36 36 20 55 -61 70 -73
14 -103 37 -107 83 -3 29 2 42 23 61 15 14 36 27 48 30 43 9 99 -2 123 -25z
m-342 1 c5 -5 6 -16 2 -25 -5 -15 -16 -16 -76 -10 l-70 7 0 -41 0 -41 48 0
c56 0 77 -11 68 -35 -5 -15 -15 -17 -66 -12 l-59 7 -7 -60 c-8 -68 -26 -92
-51 -67 -14 14 -15 29 -4 139 17 176 7 162 115 154 50 -4 95 -11 100 -16z"/>
<path d="M2650 5026 l0 -44 43 5 c54 7 77 19 77 41 0 30 -21 42 -72 42 l-48 0
0 -44z"/>
<path d="M2361 5023 c-20 -4 -22 -9 -17 -35 3 -17 6 -37 6 -46 0 -11 8 -13 36
-9 44 7 64 23 64 51 0 41 -24 51 -89 39z"/>
<path d="M2072 4938 c-23 -11 -23 -17 -1 -75 7 -20 12 -21 38 -12 47 16 66 44
53 74 -13 27 -49 33 -90 13z"/>
<path d="M3746 4811 c-22 -22 -38 -42 -35 -45 12 -11 71 -37 75 -33 3 3 4 30
2 61 l-3 57 -39 -40z"/>
<path d="M1810 4750 c3 -27 9 -52 12 -56 3 -3 21 2 38 11 l32 17 -38 39 c-21
21 -41 39 -44 39 -4 0 -4 -22 0 -50z"/>
<path d="M2344 1971 c-32 -21 -81 -61 -109 -89 -27 -28 -53 -48 -59 -45 -5 3
-6 1 -3 -4 4 -6 -8 -36 -26 -66 -38 -62 -71 -157 -82 -231 -7 -45 -6 -49 10
-42 31 12 117 87 169 147 82 95 115 162 172 352 8 25 -6 21 -72 -22z"/>
<path d="M3330 1962 c0 -69 72 -246 135 -332 53 -73 163 -155 181 -137 10 9
-14 119 -38 179 -42 104 -108 189 -206 266 -59 46 -72 51 -72 24z"/>
<path d="M4664 4081 c-66 -41 -83 -103 -39 -146 31 -32 67 -32 122 0 63 38 75
99 27 143 -31 27 -69 28 -110 3z"/>
<path d="M899 4011 c-34 -35 -37 -68 -8 -105 46 -58 120 -73 159 -31 46 48 19
119 -57 151 -46 20 -61 18 -94 -15z"/>
<path d="M732 3705 c-24 -30 -37 -64 -28 -72 3 -4 44 -23 90 -44 l84 -37 17
38 c10 23 15 49 11 64 -8 34 -59 68 -110 73 -37 5 -45 2 -64 -22z"/>
<path d="M5033 3478 c-18 -6 -33 -16 -33 -22 1 -25 40 -96 54 -96 31 0 46 13
46 40 0 31 -19 90 -28 89 -4 -1 -22 -6 -39 -11z"/>
<path d="M1448 1347 c-26 -12 -48 -27 -48 -33 0 -12 48 -60 54 -53 12 13 55
109 49 108 -5 0 -29 -11 -55 -22z"/>
<path d="M4095 1269 c15 -47 36 -89 43 -89 10 0 52 43 52 53 0 4 -23 18 -51
32 l-51 26 7 -22z"/>
<path d="M3575 984 c-16 -9 -32 -18 -34 -20 -2 -2 2 -17 9 -34 15 -35 33 -37
78 -10 27 16 33 26 30 48 -4 33 -38 40 -83 16z"/>
<path d="M2317 879 c-48 -28 -63 -141 -24 -177 62 -58 147 -2 147 98 0 70 -66
112 -123 79z"/>
<path d="M3299 812 l-4 -63 35 6 c19 4 37 9 39 11 6 5 -16 44 -44 80 l-23 29
-3 -63z"/>
</g>
</svg>
