<?xml version="1.0" standalone="no"?>
<!DOCTYPE svg PUBLIC "-//W3C//DTD SVG 20010904//EN"
 "http://www.w3.org/TR/2001/REC-SVG-20010904/DTD/svg10.dtd">
<svg version="1.0" xmlns="http://www.w3.org/2000/svg"
 width="564.000000pt" height="705.000000pt" viewBox="0 0 564.000000 705.000000"
 preserveAspectRatio="xMidYMid meet">

<g transform="translate(0.000000,705.000000) scale(0.100000,-0.100000)"
fill="#000000" stroke="none">
<path d="M1399 6591 c-20 -16 -20 -18 -9 -346 6 -181 15 -444 21 -584 6 -141
9 -318 7 -395 l-3 -139 28 -20 c25 -19 31 -20 60 -8 17 7 65 14 105 15 60 1
76 5 88 20 20 28 17 52 -8 76 -18 16 -35 20 -95 20 l-73 0 0 213 c0 333 -28
1114 -40 1137 -6 11 -14 20 -18 21 -4 0 -15 2 -24 4 -10 2 -27 -4 -39 -14z"/>
<path d="M2792 6418 c-9 -9 -12 -83 -12 -270 0 -554 -44 -897 -119 -938 -30
-16 -92 9 -112 45 -26 46 -41 277 -48 705 -5 337 -8 379 -24 403 -9 15 -26 27
-36 27 -44 0 -45 -6 -38 -483 4 -249 11 -492 17 -540 13 -109 51 -198 105
-246 36 -31 41 -33 101 -29 54 3 69 9 95 33 103 99 142 300 161 843 14 390 13
428 -3 448 -14 17 -70 19 -87 2z"/>
<path d="M3606 6420 c-43 -13 -81 -55 -112 -123 -25 -54 -28 -74 -28 -157 1
-119 20 -179 114 -350 87 -159 110 -227 110 -324 0 -124 -25 -211 -73 -257
-19 -18 -30 -20 -79 -15 -51 5 -59 3 -68 -15 -9 -16 -8 -26 5 -45 23 -35 60
-47 112 -36 90 20 148 84 185 205 17 58 20 86 15 175 -6 130 -17 164 -118 352
-42 80 -85 172 -94 204 -26 89 -9 217 35 264 17 18 27 21 64 16 39 -6 45 -4
56 16 17 32 -3 65 -52 84 -21 9 -39 16 -41 15 -1 0 -15 -5 -31 -9z"/>
<path d="M1884 6405 c-29 -19 -63 -104 -81 -195 -23 -120 -28 -535 -10 -710
30 -277 101 -408 229 -417 71 -6 130 25 175 90 75 110 98 271 90 617 -8 334
-35 439 -140 544 -41 41 -67 58 -107 70 -67 20 -129 20 -156 1z m151 -96 c91
-25 116 -77 126 -264 26 -455 22 -603 -21 -744 -23 -77 -42 -106 -80 -126 -29
-15 -31 -15 -56 10 -90 90 -125 362 -107 825 10 230 20 276 66 298 28 14 25
14 72 1z"/>
<path d="M2992 6384 c-23 -16 -28 -39 -13 -63 5 -8 35 -16 72 -20 l64 -6 0
-370 c0 -203 2 -437 3 -520 2 -82 3 -156 2 -162 0 -8 -14 -13 -33 -13 -27 0
-36 -6 -45 -26 -13 -28 -3 -58 24 -68 8 -3 76 -6 149 -6 125 0 136 1 155 22
46 49 12 88 -77 88 l-60 0 -6 248 c-3 136 -3 376 0 535 l6 287 57 0 c42 0 61
5 73 18 22 24 21 35 -1 55 -27 24 -336 25 -370 1z"/>
<path d="M3940 6375 c-25 -26 -25 -30 -26 -198 0 -95 -2 -323 -3 -507 -2 -184
0 -384 4 -443 10 -137 10 -137 155 -137 124 0 154 11 158 57 3 27 -1 32 -28
42 -19 6 -61 8 -104 4 -57 -4 -74 -3 -78 8 -3 8 -3 143 0 302 l5 287 56 0 c65
0 101 19 101 54 0 35 -23 48 -95 54 -50 4 -65 8 -66 21 -3 53 3 357 7 361 3 2
36 -4 75 -14 64 -16 72 -17 94 -2 16 10 25 26 25 41 0 43 -66 72 -205 90 -46
6 -52 4 -75 -20z"/>
<path d="M1833 855 c-296 -151 -566 -450 -673 -744 -17 -45 -30 -88 -30 -96 0
-13 29 -15 189 -15 l189 0 52 58 c104 115 243 343 331 544 31 72 37 79 79 97
73 31 157 44 237 37 72 -7 81 -4 64 22 -18 29 -222 12 -293 -24 -16 -9 -32
-14 -34 -12 -2 3 1 31 7 64 10 60 1 114 -20 114 -5 0 -50 -20 -98 -45z"/>
<path d="M3609 878 c-11 -21 -8 -105 7 -141 6 -18 4 -17 -34 2 -111 57 -322
69 -322 18 0 -10 21 -12 94 -9 68 3 109 0 152 -13 101 -29 129 -48 149 -102
70 -187 248 -481 360 -596 l37 -37 214 0 c127 0 214 4 214 9 0 19 -53 157 -83
216 -33 67 -122 204 -163 250 -74 86 -163 171 -229 220 -22 16 -42 32 -45 35
-3 4 -33 24 -67 44 -35 21 -60 43 -56 49 3 5 1 7 -5 3 -5 -3 -48 12 -93 34
-95 46 -114 48 -130 18z"/>
<path d="M3417 583 c-2 -5 -10 -38 -17 -75 -12 -65 -13 -68 -41 -68 -53 0
-137 -40 -194 -92 -80 -73 -127 -172 -131 -275 l-3 -78 14 73 c27 141 103 261
203 319 35 21 62 27 123 31 73 4 84 2 143 -27 96 -47 162 -134 200 -260 9 -30
16 -72 16 -93 0 -21 5 -38 10 -38 15 0 12 73 -7 147 -10 41 -33 91 -60 131
-23 36 -43 67 -43 70 0 3 16 24 35 48 38 46 41 54 23 54 -7 0 -28 -21 -47 -45
-28 -38 -36 -43 -53 -34 -30 16 -31 33 -4 88 27 52 32 71 18 71 -5 0 -21 -27
-37 -60 -30 -62 -39 -69 -69 -47 -16 12 -16 16 3 75 10 34 15 65 10 68 -10 6
-24 -23 -39 -83 -9 -36 -15 -43 -35 -43 -26 0 -26 -1 -5 103 7 33 -2 60 -13
40z"/>
<path d="M2200 510 c0 -67 -1 -70 -24 -70 -21 0 -26 7 -35 50 -6 28 -11 58
-11 65 0 8 -4 15 -10 15 -13 0 -12 -32 1 -89 11 -49 12 -46 -17 -55 -18 -6
-24 2 -49 59 -16 39 -31 63 -37 57 -5 -5 2 -31 17 -63 13 -30 25 -59 25 -65 0
-9 -40 -34 -55 -34 -2 0 -20 25 -40 55 -33 49 -55 68 -55 47 0 -4 16 -31 35
-59 19 -29 35 -55 35 -58 0 -4 -15 -25 -34 -48 -62 -76 -106 -191 -106 -274 0
-67 16 -51 23 24 8 80 57 191 112 252 20 22 66 55 101 72 57 28 70 31 136 27
90 -4 151 -33 214 -100 58 -62 100 -152 115 -245 13 -83 33 -100 24 -20 -16
134 -59 223 -147 301 -47 43 -137 86 -178 86 -18 0 -20 7 -20 70 0 40 -4 70
-10 70 -6 0 -10 -30 -10 -70z"/>
<path d="M2160 41 c-18 -36 -12 -41 50 -41 33 0 60 3 60 8 0 4 -7 18 -16 30
-20 29 -79 31 -94 3z"/>
<path d="M3337 42 c-30 -33 -21 -42 43 -42 64 0 72 8 40 40 -25 25 -62 26 -83
2z"/>
</g>
</svg>
